<svg width="32" height="32" viewBox="0 0 32 32" fill="none" xmlns="http://www.w3.org/2000/svg">
<path d="M0 16C-7.94728e-07 4.00001 4 0 16 0C28 0 32 0 32 0C32 0 32 3.99999 32 16C32 28 28 32 16 32C4 32 0 32 0 32C0 32 7.94729e-07 28 0 16Z" fill="#005CE7"/>
<path d="M0 16C-7.94728e-07 4.00001 4 0 16 0C28 0 32 0 32 0C32 0 32 3.99999 32 16C32 28 28 32 16 32C4 32 0 32 0 32C0 32 7.94729e-07 28 0 16Z" fill="#005CE7"/>
<path d="M8 12C8 3.00001 11 0 20 0C29 0 32 0 32 0C32 0 32 3 32 12C32 21 29 24 20 24C11 24 8 24 8 24C8 24 8 21 8 12Z" fill="#C9E8FF"/>
<path d="M8 12C8 3.00001 11 0 20 0C29 0 32 0 32 0C32 0 32 3 32 12C32 21 29 24 20 24C11 24 8 24 8 24C8 24 8 21 8 12Z" fill="#C9E8FF"/>
<path d="M8 16C8 10 10 8 16 8C22 8 24 8 24 8C24 8 24 10 24 16C24 22 22 24 16 24C10 24 8 24 8 24C8 24 8 22 8 16Z" fill="#00327C"/>
<path d="M8 16C8 10 10 8 16 8C22 8 24 8 24 8C24 8 24 10 24 16C24 22 22 24 16 24C10 24 8 24 8 24C8 24 8 22 8 16Z" fill="#00327C"/>
</svg>