<svg width="101" height="32" viewBox="0 0 101 32" fill="none" xmlns="http://www.w3.org/2000/svg">
<path d="M0 16C-7.94728e-07 4.00001 4 0 16 0C28 0 32 0 32 0C32 0 32 3.99999 32 16C32 28 28 32 16 32C4 32 0 32 0 32C0 32 7.94729e-07 28 0 16Z" fill="#005CE7"/>
<path d="M0 16C-7.94728e-07 4.00001 4 0 16 0C28 0 32 0 32 0C32 0 32 3.99999 32 16C32 28 28 32 16 32C4 32 0 32 0 32C0 32 7.94729e-07 28 0 16Z" fill="#005CE7"/>
<path d="M8 12C8 3.00001 11 0 20 0C29 0 32 0 32 0C32 0 32 3 32 12C32 21 29 24 20 24C11 24 8 24 8 24C8 24 8 21 8 12Z" fill="#C9E8FF"/>
<path d="M8 12C8 3.00001 11 0 20 0C29 0 32 0 32 0C32 0 32 3 32 12C32 21 29 24 20 24C11 24 8 24 8 24C8 24 8 21 8 12Z" fill="#C9E8FF"/>
<path d="M8 16C8 10 10 8 16 8C22 8 24 8 24 8C24 8 24 10 24 16C24 22 22 24 16 24C10 24 8 24 8 24C8 24 8 22 8 16Z" fill="#00327C"/>
<path d="M8 16C8 10 10 8 16 8C22 8 24 8 24 8C24 8 24 10 24 16C24 22 22 24 16 24C10 24 8 24 8 24C8 24 8 22 8 16Z" fill="#00327C"/>
<path d="M41.5827 8.58807V5.54545H55.918V8.58807H50.5742V23H46.9265V8.58807H41.5827Z" fill="#FFFFFF"/>
<path d="M61.2106 23V9.90909H64.8413V23H61.2106ZM63.0344 8.22159C62.4947 8.22159 62.0316 8.04261 61.6452 7.68466C61.2646 7.32102 61.0742 6.88636 61.0742 6.38068C61.0742 5.88068 61.2646 5.4517 61.6452 5.09375C62.0316 4.73011 62.4947 4.54829 63.0344 4.54829C63.5742 4.54829 64.0344 4.73011 64.4151 5.09375C64.8015 5.4517 64.9947 5.88068 64.9947 6.38068C64.9947 6.88636 64.8015 7.32102 64.4151 7.68466C64.0344 8.04261 63.5742 8.22159 63.0344 8.22159Z" fill="#FFFFFF"/>
<path d="M74.3803 15.4318V23H70.7496V9.90909H74.2099V12.2187H74.3633C74.6531 11.4574 75.1388 10.8551 75.8207 10.4119C76.5025 9.96307 77.3292 9.73864 78.3008 9.73864C79.2099 9.73864 80.0025 9.9375 80.6786 10.3352C81.3548 10.733 81.8803 11.3011 82.2553 12.0398C82.6303 12.7727 82.8178 13.6477 82.8178 14.6648V23H79.1871V15.3125C79.1928 14.5114 78.9883 13.8864 78.5735 13.4375C78.1587 12.983 77.5877 12.7557 76.8604 12.7557C76.3718 12.7557 75.94 12.8608 75.565 13.071C75.1957 13.2812 74.9059 13.5881 74.6957 13.9915C74.4911 14.3892 74.386 14.8693 74.3803 15.4318Z" fill="#FFFFFF"/>
<path d="M90.4521 27.9091C89.9918 27.9091 89.56 27.8722 89.1566 27.7983C88.7589 27.7301 88.4293 27.642 88.168 27.5341L88.9861 24.8239C89.4123 24.9545 89.7958 25.0256 90.1367 25.0369C90.4833 25.0483 90.7816 24.9687 91.0316 24.7983C91.2873 24.6278 91.4947 24.3381 91.6538 23.929L91.8668 23.375L87.1708 9.90909H90.989L93.6992 19.5227H93.8356L96.5714 9.90909H100.415L95.3271 24.4148C95.0827 25.1193 94.7504 25.733 94.3299 26.2557C93.9151 26.7841 93.3896 27.1903 92.7532 27.4744C92.1168 27.7642 91.3498 27.9091 90.4521 27.9091Z" fill="#FFFFFF"/>
</svg>
